<?xml version="1.0" encoding="UTF-8" standalone="no"?>
<!DOCTYPE svg PUBLIC "-//W3C//DTD SVG 1.1//EN"
 "http://www.w3.org/Graphics/SVG/1.1/DTD/svg11.dtd">
<!-- Generated by graphviz version 2.43.0 (0)
 -->
<!-- Title: G Pages: 1 -->
<svg width="288pt" height="79pt"
 viewBox="0.00 0.00 288.00 79.00" xmlns="http://www.w3.org/2000/svg" xmlns:xlink="http://www.w3.org/1999/xlink">
<g id="graph0" class="graph" transform="scale(1 1) rotate(0) translate(4 75)">
<title>G</title>
<polygon fill="white" stroke="transparent" points="-4,4 -4,-75 284,-75 284,4 -4,4"/>
<!-- 1 -->
<g id="node1" class="node">
<title>1</title>
<ellipse fill="none" stroke="black" cx="27" cy="-35" rx="27" ry="18"/>
<text text-anchor="middle" x="27" y="-31.3" font-family="Times,serif" font-size="14.00">1</text>
</g>
<!-- 0 -->
<g id="node2" class="node">
<title>0</title>
<ellipse fill="none" stroke="black" cx="140" cy="-53" rx="27" ry="18"/>
<text text-anchor="middle" x="140" y="-49.3" font-family="Times,serif" font-size="14.00">0</text>
</g>
<!-- 1&#45;&gt;0 -->
<g id="edge1" class="edge">
<title>1&#45;&gt;0</title>
<path fill="none" stroke="black" d="M49.99,-44.55C56.91,-47.13 64.66,-49.59 72,-51 81.92,-52.9 92.83,-53.74 102.9,-54.03"/>
<polygon fill="black" stroke="black" points="102.98,-57.53 113.02,-54.14 103.06,-50.53 102.98,-57.53"/>
<text text-anchor="middle" x="83.5" y="-56.8" font-family="Times,serif" font-size="14.00">0/4</text>
</g>
<!-- 2 -->
<g id="node3" class="node">
<title>2</title>
<ellipse fill="none" stroke="black" cx="253" cy="-18" rx="27" ry="18"/>
<text text-anchor="middle" x="253" y="-14.3" font-family="Times,serif" font-size="14.00">2</text>
</g>
<!-- 1&#45;&gt;2 -->
<g id="edge2" class="edge">
<title>1&#45;&gt;2</title>
<path fill="none" stroke="black" d="M51.08,-26.62C67.97,-20.94 91.58,-13.97 113,-11 147.91,-6.17 188.17,-9.11 216.34,-12.54"/>
<polygon fill="black" stroke="black" points="216.14,-16.05 226.51,-13.87 217.05,-9.11 216.14,-16.05"/>
<text text-anchor="middle" x="140" y="-14.8" font-family="Times,serif" font-size="14.00">2/3</text>
</g>
<!-- 0&#45;&gt;1 -->
<g id="edge3" class="edge">
<title>0&#45;&gt;1</title>
<path fill="none" stroke="black" d="M119.09,-41.19C111.78,-37.48 103.26,-33.87 95,-32 84.97,-29.73 73.89,-29.38 63.67,-29.9"/>
<polygon fill="black" stroke="black" points="63.11,-26.44 53.42,-30.71 63.66,-33.41 63.11,-26.44"/>
<text text-anchor="middle" x="83.5" y="-35.8" font-family="Times,serif" font-size="14.00">2/2</text>
</g>
<!-- 0&#45;&gt;2 -->
<g id="edge4" class="edge">
<title>0&#45;&gt;2</title>
<path fill="none" stroke="black" d="M164.81,-45.49C180.47,-40.56 201.18,-34.02 218.49,-28.57"/>
<polygon fill="black" stroke="black" points="219.74,-31.84 228.23,-25.5 217.64,-25.17 219.74,-31.84"/>
<text text-anchor="middle" x="196.5" y="-41.8" font-family="Times,serif" font-size="14.00">4/4</text>
</g>
</g>
</svg>
